# xmcd
#
# Track frame offsets: 
#        150
#        19417
#        39994
#        52019
#        70346
#        88006
#        104009
#        121095
#        137171
#        158658
#        171049
#
# Disc length: 2445 seconds
#
# Revision: 0
# Processed by: cddbd v1.5.2PL0 Copyright (c) Steve Scherf et al.
# Submitted via: ExactAudioCopyFreeDBPlugin 1.0
#
DISCID=93098b0b
DTITLE=Stray Colors - Atomic Bombs and Pirouettes
DYEAR=2018
DGENRE=Pop
TTITLE0=The Things We Love
TTITLE1=Spaceman Cemetery
TTITLE2=Whiskey Sour
TTITLE3=Sunbeams
TTITLE4=It's Never Gonna Be The Same
TTITLE5=Dazed
TTITLE6=Ships
TTITLE7=Rain Inside My Paper Cup
TTITLE8=No Use For Rock N' Roll
TTITLE9=Nervous Flies
TTITLE10=Light Years
EXTD=
EXTT0=
EXTT1=
EXTT2=
EXTT3=
EXTT4=
EXTT5=
EXTT6=
EXTT7=
EXTT8=
EXTT9=
EXTT10=
PLAYORDER=
